<?xml version="1.0" encoding="UTF-8" standalone="no"?>
<svg
   xmlns:dc="http://purl.org/dc/elements/1.1/"
   xmlns:cc="http://creativecommons.org/ns#"
   xmlns:rdf="http://www.w3.org/1999/02/22-rdf-syntax-ns#"
   xmlns:svg="http://www.w3.org/2000/svg"
   xmlns="http://www.w3.org/2000/svg"
   xmlns:sodipodi="http://sodipodi.sourceforge.net/DTD/sodipodi-0.dtd"
   xmlns:inkscape="http://www.inkscape.org/namespaces/inkscape"
   version="1.2"
   width="280mm"
   height="210mm"
   viewBox="0 0 28000 21000"
   preserveAspectRatio="xMidYMid"
   fill-rule="evenodd"
   clip-path="url(#presentation_clip_path)"
   stroke-width="28.222"
   stroke-linejoin="round"
   xml:space="preserve"
   id="svg3404"
   inkscape:version="0.48.4 r9939"
   sodipodi:docname="nodes-fault1.svg"><metadata
     id="metadata3783"><rdf:RDF><cc:Work
         rdf:about=""><dc:format>image/svg+xml</dc:format><dc:type
           rdf:resource="http://purl.org/dc/dcmitype/StillImage" /><dc:title></dc:title></cc:Work></rdf:RDF></metadata><sodipodi:namedview
     pagecolor="#ffffff"
     bordercolor="#666666"
     borderopacity="1"
     objecttolerance="10"
     gridtolerance="10"
     guidetolerance="10"
     inkscape:pageopacity="0"
     inkscape:pageshadow="2"
     inkscape:window-width="1422"
     inkscape:window-height="1022"
     id="namedview3781"
     showgrid="false"
     inkscape:zoom="1"
     inkscape:cx="502.26378"
     inkscape:cy="372.04724"
     inkscape:window-x="0"
     inkscape:window-y="0"
     inkscape:window-maximized="0"
     inkscape:current-layer="svg3404" /><defs
     class="ClipPathGroup"
     id="defs3406"><clipPath
       id="presentation_clip_path"
       clipPathUnits="userSpaceOnUse"><rect
         x="0"
         y="0"
         width="28000"
         height="21000"
         id="rect3409" /></clipPath></defs><defs
     id="defs3411" /><defs
     id="defs3466" /><defs
     id="defs3489" /><defs
     class="TextShapeIndex"
     id="defs3500" /><defs
     class="EmbeddedBulletChars"
     id="defs3504" /><defs
     class="TextEmbeddedBitmaps"
     id="defs3533" /><g
     class="SlideGroup"
     id="g3557"
     transform="matrix(1.4371323,0,0,1.4371323,-6142.9242,-6892.6619)"><g
       id="g3559"><g
         id="id1"
         class="Slide"
         clip-path="url(#presentation_clip_path)"><g
           class="Page"
           id="g3562"><g
             class="com.sun.star.drawing.CustomShape"
             id="g3564"><g
               id="id6"><path
                 d="m 5207,5904 c 504,0 889,385 889,889 0,504 -385,889 -889,889 -504,0 -889,-385 -889,-889 0,-504 385,-889 889,-889 z m -889,0 0,0 z m 1779,1779 0,0 z"
                 id="path3567"
                 inkscape:connector-curvature="0"
                 style="fill:#729fcf;stroke:none" /><path
                 d="m 5207,5904 c 504,0 889,385 889,889 0,504 -385,889 -889,889 -504,0 -889,-385 -889,-889 0,-504 385,-889 889,-889 z"
                 id="path3569"
                 inkscape:connector-curvature="0"
                 style="fill:none;stroke:#3465a4" /><path
                 d="m 4318,5904 0,0 z"
                 id="path3571"
                 inkscape:connector-curvature="0"
                 style="fill:none;stroke:#3465a4" /><path
                 d="m 6097,7683 0,0 z"
                 id="path3573"
                 inkscape:connector-curvature="0"
                 style="fill:none;stroke:#3465a4" /></g></g><g
             class="com.sun.star.drawing.CustomShape"
             id="g3575"><g
               id="id7"><path
                 d="m 5207,8127 c 504,0 889,385 889,889 0,504 -385,889 -889,889 -504,0 -889,-385 -889,-889 0,-504 385,-889 889,-889 z m -889,0 0,0 z m 1779,1779 0,0 z"
                 id="path3578"
                 inkscape:connector-curvature="0"
                 style="fill:#729fcf;stroke:none" /><path
                 d="m 5207,8127 c 504,0 889,385 889,889 0,504 -385,889 -889,889 -504,0 -889,-385 -889,-889 0,-504 385,-889 889,-889 z"
                 id="path3580"
                 inkscape:connector-curvature="0"
                 style="fill:none;stroke:#3465a4" /><path
                 d="m 4318,8127 0,0 z"
                 id="path3582"
                 inkscape:connector-curvature="0"
                 style="fill:none;stroke:#3465a4" /><path
                 d="m 6097,9906 0,0 z"
                 id="path3584"
                 inkscape:connector-curvature="0"
                 style="fill:none;stroke:#3465a4" /></g></g><g
             class="com.sun.star.drawing.CustomShape"
             id="g3586"><g
               id="id8"><path
                 d="m 5207,10351 c 504,0 889,385 889,889 0,504 -385,889 -889,889 -504,0 -889,-385 -889,-889 0,-504 385,-889 889,-889 z m -889,0 0,0 z m 1779,1779 0,0 z"
                 id="path3589"
                 inkscape:connector-curvature="0"
                 style="fill:#729fcf;stroke:none" /><path
                 d="m 5207,10351 c 504,0 889,385 889,889 0,504 -385,889 -889,889 -504,0 -889,-385 -889,-889 0,-504 385,-889 889,-889 z"
                 id="path3591"
                 inkscape:connector-curvature="0"
                 style="fill:none;stroke:#3465a4" /><path
                 d="m 4318,10351 0,0 z"
                 id="path3593"
                 inkscape:connector-curvature="0"
                 style="fill:none;stroke:#3465a4" /><path
                 d="m 6097,12130 0,0 z"
                 id="path3595"
                 inkscape:connector-curvature="0"
                 style="fill:none;stroke:#3465a4" /></g></g><g
             class="com.sun.star.drawing.CustomShape"
             id="g3597"><g
               id="id9"><path
                 d="m 5207,16694 c 504,0 889,385 889,889 0,504 -385,889 -889,889 -504,0 -889,-385 -889,-889 0,-504 385,-889 889,-889 z m -889,0 0,0 z m 1779,1779 0,0 z"
                 id="path3600"
                 inkscape:connector-curvature="0"
                 style="fill:#729fcf;stroke:none" /><path
                 d="m 5207,16694 c 504,0 889,385 889,889 0,504 -385,889 -889,889 -504,0 -889,-385 -889,-889 0,-504 385,-889 889,-889 z"
                 id="path3602"
                 inkscape:connector-curvature="0"
                 style="fill:none;stroke:#3465a4" /><path
                 d="m 4318,16694 0,0 z"
                 id="path3604"
                 inkscape:connector-curvature="0"
                 style="fill:none;stroke:#3465a4" /><path
                 d="m 6097,18473 0,0 z"
                 id="path3606"
                 inkscape:connector-curvature="0"
                 style="fill:none;stroke:#3465a4" /></g></g><g
             class="com.sun.star.drawing.CustomShape"
             id="g3608"><g
               id="id10"><path
                 d="m 5207,14474 c 504,0 889,385 889,889 0,504 -385,889 -889,889 -504,0 -889,-385 -889,-889 0,-504 385,-889 889,-889 z m -889,0 0,0 z m 1779,1779 0,0 z"
                 id="path3611"
                 inkscape:connector-curvature="0"
                 style="fill:#729fcf;stroke:none" /><path
                 d="m 5207,14474 c 504,0 889,385 889,889 0,504 -385,889 -889,889 -504,0 -889,-385 -889,-889 0,-504 385,-889 889,-889 z"
                 id="path3613"
                 inkscape:connector-curvature="0"
                 style="fill:none;stroke:#3465a4" /><path
                 d="m 4318,14474 0,0 z"
                 id="path3615"
                 inkscape:connector-curvature="0"
                 style="fill:none;stroke:#3465a4" /><path
                 d="m 6097,16253 0,0 z"
                 id="path3617"
                 inkscape:connector-curvature="0"
                 style="fill:none;stroke:#3465a4" /></g></g><g
             class="com.sun.star.drawing.CustomShape"
             id="g3619"><g
               id="id11"><path
                 d="m 13843,8374 c 936,0 1651,715 1651,1651 0,936 -715,1651 -1651,1651 -936,0 -1651,-715 -1651,-1651 0,-936 715,-1651 1651,-1651 z m -1651,0 0,0 z m 3303,3303 0,0 z"
                 id="path3622"
                 inkscape:connector-curvature="0"
                 style="fill:#729fcf;stroke:none" /><path
                 d="m 13843,8374 c 936,0 1651,715 1651,1651 0,936 -715,1651 -1651,1651 -936,0 -1651,-715 -1651,-1651 0,-936 715,-1651 1651,-1651 z"
                 id="path3624"
                 inkscape:connector-curvature="0"
                 style="fill:none;stroke:#3465a4" /><path
                 d="m 12192,8374 0,0 z"
                 id="path3626"
                 inkscape:connector-curvature="0"
                 style="fill:none;stroke:#3465a4" /><path
                 d="m 15495,11677 0,0 z"
                 id="path3628"
                 inkscape:connector-curvature="0"
                 style="fill:none;stroke:#3465a4" /></g></g><g
             class="com.sun.star.drawing.CustomShape"
             id="g3630"><g
               id="id12"><path
                 d="m 13843,12946 c 936,0 1651,715 1651,1651 0,936 -715,1651 -1651,1651 -936,0 -1651,-715 -1651,-1651 0,-936 715,-1651 1651,-1651 z m -1651,0 0,0 z m 3303,3303 0,0 z"
                 id="path3633"
                 inkscape:connector-curvature="0"
                 style="fill:#729fcf;stroke:none" /><path
                 d="m 13843,12946 c 936,0 1651,715 1651,1651 0,936 -715,1651 -1651,1651 -936,0 -1651,-715 -1651,-1651 0,-936 715,-1651 1651,-1651 z"
                 id="path3635"
                 inkscape:connector-curvature="0"
                 style="fill:none;stroke:#3465a4" /><path
                 d="m 12192,12946 0,0 z"
                 id="path3637"
                 inkscape:connector-curvature="0"
                 style="fill:none;stroke:#3465a4" /><path
                 d="m 15495,16249 0,0 z"
                 id="path3639"
                 inkscape:connector-curvature="0"
                 style="fill:none;stroke:#3465a4" /></g></g><g
             class="com.sun.star.drawing.CustomShape"
             id="g3641"><g
               id="id13"><path
                 d="m 22833,8444 c 504,0 889,385 889,889 0,504 -385,889 -889,889 -504,0 -889,-385 -889,-889 0,-504 385,-889 889,-889 z m -889,0 0,0 z m 1779,1779 0,0 z"
                 id="path3644"
                 inkscape:connector-curvature="0"
                 style="fill:#729fcf;stroke:none" /><path
                 d="m 22833,8444 c 504,0 889,385 889,889 0,504 -385,889 -889,889 -504,0 -889,-385 -889,-889 0,-504 385,-889 889,-889 z"
                 id="path3646"
                 inkscape:connector-curvature="0"
                 style="fill:none;stroke:#3465a4" /><path
                 d="m 21944,8444 0,0 z"
                 id="path3648"
                 inkscape:connector-curvature="0"
                 style="fill:none;stroke:#3465a4" /><path
                 d="m 23723,10223 0,0 z"
                 id="path3650"
                 inkscape:connector-curvature="0"
                 style="fill:none;stroke:#3465a4" /></g></g><g
             class="com.sun.star.drawing.CustomShape"
             id="g3652"><g
               id="id14"><path
                 d="m 22833,11332 c 504,0 889,385 889,889 0,504 -385,889 -889,889 -504,0 -889,-385 -889,-889 0,-504 385,-889 889,-889 z m -889,0 0,0 z m 1779,1779 0,0 z"
                 id="path3655"
                 inkscape:connector-curvature="0"
                 style="fill:#729fcf;stroke:none" /><path
                 d="m 22833,11332 c 504,0 889,385 889,889 0,504 -385,889 -889,889 -504,0 -889,-385 -889,-889 0,-504 385,-889 889,-889 z"
                 id="path3657"
                 inkscape:connector-curvature="0"
                 style="fill:none;stroke:#3465a4" /><path
                 d="m 21944,11332 0,0 z"
                 id="path3659"
                 inkscape:connector-curvature="0"
                 style="fill:none;stroke:#3465a4" /><path
                 d="m 23723,13111 0,0 z"
                 id="path3661"
                 inkscape:connector-curvature="0"
                 style="fill:none;stroke:#3465a4" /></g></g><g
             class="com.sun.star.drawing.CustomShape"
             id="g3663"><g
               id="id15"><path
                 d="m 22833,14116 c 504,0 889,385 889,889 0,504 -385,889 -889,889 -504,0 -889,-385 -889,-889 0,-504 385,-889 889,-889 z m -889,0 0,0 z m 1779,1779 0,0 z"
                 id="path3666"
                 inkscape:connector-curvature="0"
                 style="fill:#729fcf;stroke:none" /><path
                 d="m 22833,14116 c 504,0 889,385 889,889 0,504 -385,889 -889,889 -504,0 -889,-385 -889,-889 0,-504 385,-889 889,-889 z"
                 id="path3668"
                 inkscape:connector-curvature="0"
                 style="fill:none;stroke:#3465a4" /><path
                 d="m 21944,14116 0,0 z"
                 id="path3670"
                 inkscape:connector-curvature="0"
                 style="fill:none;stroke:#3465a4" /><path
                 d="m 23723,15895 0,0 z"
                 id="path3672"
                 inkscape:connector-curvature="0"
                 style="fill:none;stroke:#3465a4" /></g></g><g
             class="com.sun.star.drawing.ConnectorShape"
             id="g3674"><g
               id="id16"><path
                 d="m 6096,6793 6096,3232"
                 id="path3677"
                 inkscape:connector-curvature="0"
                 style="fill:none;stroke:#000000" /></g></g><g
             class="com.sun.star.drawing.ConnectorShape"
             id="g3679"><g
               id="id17"><path
                 d="m 6096,9016 6096,1009"
                 id="path3682"
                 inkscape:connector-curvature="0"
                 style="fill:none;stroke:#000000" /></g></g><g
             class="com.sun.star.drawing.ConnectorShape"
             id="g3684"><g
               id="id18"><path
                 d="m 6096,11240 6096,-1215"
                 id="path3687"
                 inkscape:connector-curvature="0"
                 style="fill:none;stroke:#000000" /></g></g><g
             class="com.sun.star.drawing.ConnectorShape"
             id="g3689"><g
               id="id19"><path
                 d="m 6096,17583 6096,-2986"
                 id="path3692"
                 inkscape:connector-curvature="0"
                 style="fill:none;stroke:#000000" /></g></g><g
             class="com.sun.star.drawing.ConnectorShape"
             id="g3694"><g
               id="id20"><path
                 d="m 6096,15363 6096,-766"
                 id="path3697"
                 inkscape:connector-curvature="0"
                 style="fill:none;stroke:#000000" /></g></g><g
             class="com.sun.star.drawing.ConnectorShape"
             id="g3699"><g
               id="id21"><path
                 d="m 6096,15363 6096,-5338"
                 id="path3702"
                 inkscape:connector-curvature="0"
                 style="fill:none;stroke:#000000" /></g></g><g
             class="com.sun.star.drawing.ConnectorShape"
             id="g3704"><g
               id="id22"><path
                 d="m 15494,10025 6450,-692"
                 id="path3707"
                 inkscape:connector-curvature="0"
                 style="fill:none;stroke:#000000" /></g></g><g
             class="com.sun.star.drawing.ConnectorShape"
             id="g3709"><g
               id="id23"><path
                 d="m 15494,10025 6450,2196"
                 id="path3712"
                 inkscape:connector-curvature="0"
                 style="fill:none;stroke:#000000" /></g></g><g
             class="com.sun.star.drawing.ConnectorShape"
             id="g3714"><g
               id="id24"><path
                 d="m 15494,10025 6450,4980"
                 id="path3717"
                 inkscape:connector-curvature="0"
                 style="fill:none;stroke:#000000" /></g></g><g
             class="com.sun.star.drawing.ConnectorShape"
             id="g3719"><g
               id="id25"><path
                 d="M 15494,14597 21944,9333"
                 id="path3722"
                 inkscape:connector-curvature="0"
                 style="fill:none;stroke:#000000" /></g></g><g
             class="com.sun.star.drawing.ConnectorShape"
             id="g3724"><g
               id="id26"><path
                 d="m 15494,14597 6450,-2376"
                 id="path3727"
                 inkscape:connector-curvature="0"
                 style="fill:none;stroke:#000000" /></g></g><g
             class="com.sun.star.drawing.ConnectorShape"
             id="g3729"><g
               id="id27"><path
                 d="m 15494,14597 6450,408"
                 id="path3732"
                 inkscape:connector-curvature="0"
                 style="fill:none;stroke:#000000" /></g></g><g
             class="com.sun.star.drawing.ConnectorShape"
             id="g3734"><g
               id="id28"><path
                 d="m 13843,12106 0,410"
                 id="path3737"
                 inkscape:connector-curvature="0"
                 style="fill:none;stroke:#000000" /><path
                 d="m 13843,11676 -150,450 300,0 -150,-450 z"
                 id="path3739"
                 inkscape:connector-curvature="0"
                 style="fill:#000000;stroke:none" /><path
                 d="m 13843,12946 150,-450 -300,0 150,450 z"
                 id="path3741"
                 inkscape:connector-curvature="0"
                 style="fill:#000000;stroke:none" /></g></g><g
             class="com.sun.star.drawing.ConnectorShape"
             id="g3743"><g
               id="id29"><path
                 d="m 6096,11240 6096,3357"
                 id="path3746"
                 inkscape:connector-curvature="0"
                 style="fill:none;stroke:#000000" /></g></g><g
             class="com.sun.star.drawing.CustomShape"
             id="g3748"><g
               id="id30"><path
                 d="m 5206,12945 c 36,0 64,27 64,63 0,36 -28,64 -64,64 -36,0 -63,-28 -63,-64 0,-36 27,-63 63,-63 z m -63,0 0,0 z m 128,128 0,0 z"
                 id="path3751"
                 inkscape:connector-curvature="0"
                 style="fill:#729fcf;stroke:none" /><path
                 d="m 5206,12945 c 36,0 64,27 64,63 0,36 -28,64 -64,64 -36,0 -63,-28 -63,-64 0,-36 27,-63 63,-63 z"
                 id="path3753"
                 inkscape:connector-curvature="0"
                 style="fill:none;stroke:#3465a4" /><path
                 d="m 5143,12945 0,0 z"
                 id="path3755"
                 inkscape:connector-curvature="0"
                 style="fill:none;stroke:#3465a4" /><path
                 d="m 5271,13073 0,0 z"
                 id="path3757"
                 inkscape:connector-curvature="0"
                 style="fill:none;stroke:#3465a4" /></g></g><g
             class="com.sun.star.drawing.CustomShape"
             id="g3759"><g
               id="id31"><path
                 d="m 5206,13199 c 36,0 64,27 64,63 0,36 -28,64 -64,64 -36,0 -63,-28 -63,-64 0,-36 27,-63 63,-63 z m -63,0 0,0 z m 128,128 0,0 z"
                 id="path3762"
                 inkscape:connector-curvature="0"
                 style="fill:#729fcf;stroke:none" /><path
                 d="m 5206,13199 c 36,0 64,27 64,63 0,36 -28,64 -64,64 -36,0 -63,-28 -63,-64 0,-36 27,-63 63,-63 z"
                 id="path3764"
                 inkscape:connector-curvature="0"
                 style="fill:none;stroke:#3465a4" /><path
                 d="m 5143,13199 0,0 z"
                 id="path3766"
                 inkscape:connector-curvature="0"
                 style="fill:none;stroke:#3465a4" /><path
                 d="m 5271,13327 0,0 z"
                 id="path3768"
                 inkscape:connector-curvature="0"
                 style="fill:none;stroke:#3465a4" /></g></g><g
             class="com.sun.star.drawing.CustomShape"
             id="g3770"><g
               id="id32"><path
                 d="m 5206,13453 c 36,0 64,27 64,63 0,36 -28,64 -64,64 -36,0 -63,-28 -63,-64 0,-36 27,-63 63,-63 z m -63,0 0,0 z m 128,128 0,0 z"
                 id="path3773"
                 inkscape:connector-curvature="0"
                 style="fill:#729fcf;stroke:none" /><path
                 d="m 5206,13453 c 36,0 64,27 64,63 0,36 -28,64 -64,64 -36,0 -63,-28 -63,-64 0,-36 27,-63 63,-63 z"
                 id="path3775"
                 inkscape:connector-curvature="0"
                 style="fill:none;stroke:#3465a4" /><path
                 d="m 5143,13453 0,0 z"
                 id="path3777"
                 inkscape:connector-curvature="0"
                 style="fill:none;stroke:#3465a4" /><path
                 d="m 5271,13581 0,0 z"
                 id="path3779"
                 inkscape:connector-curvature="0"
                 style="fill:none;stroke:#3465a4" /></g></g></g></g></g></g><text
     xml:space="preserve"
     style="font-size:1128.88891602px;font-style:normal;font-weight:normal;line-height:125%;letter-spacing:0px;word-spacing:0px;fill:#000000;fill-opacity:1;stroke:none;font-family:Sans"
     x="5616.2222"
     y="5590.6665"
     id="text3804"
     sodipodi:linespacing="125%"><tspan
       sodipodi:role="line"
       id="tspan3806"
       x="5616.2222"
       y="5590.6665"
       style="font-size:2032px;fill:#ff0000">X</tspan></text>
</svg>